<svg width="6" height="23" viewBox="0 0 6 23" version="1.1" xmlns="http://www.w3.org/2000/svg" xmlns:xlink="http://www.w3.org/1999/xlink">
<g id="Canvas" fill="none">
<g id="!">
<path d="M 5.93262 21.4521L 2.41699 21.4521L 1.91895 6.67188L 6.43066 6.67188L 5.93262 21.4521ZM 4.1748 23.7666C 4.8877 23.7666 5.45898 23.9766 5.88867 24.3965C 6.32812 24.8164 6.54785 25.3535 6.54785 26.0078C 6.54785 26.6523 6.32812 27.1846 5.88867 27.6045C 5.45898 28.0244 4.8877 28.2344 4.1748 28.2344C 3.47168 28.2344 2.90039 28.0244 2.46094 27.6045C 2.03125 27.1846 1.81641 26.6523 1.81641 26.0078C 1.81641 25.3633 2.03125 24.8311 2.46094 24.4111C 2.90039 23.9814 3.47168 23.7666 4.1748 23.7666Z" transform="translate(-1 -6)" fill="#F84850"/>
</g>
</g>
</svg>

