<svg width="41" height="40" viewBox="0 0 41 40" version="1.1" xmlns="http://www.w3.org/2000/svg" xmlns:xlink="http://www.w3.org/1999/xlink">
<g fill="none">
<path fill-rule="evenodd" clip-rule="evenodd" d="M 20 1C 9.50695 1 1 9.50695 1 20C 1 30.493 9.50695 39 20 39C 30.493 39 39 30.493 39 20C 39 9.50695 30.493 1 20 1Z" stroke-width="2" stroke-miterlimit="8" transform="translate(0.399902 0)" stroke="#C4C4C4"/>
<path fill-rule="evenodd" clip-rule="evenodd" d="M 6.75133 21.7593L 6.75133 10.8786L 9.75533 10.8786L 10.1533 7.12865L 6.75133 7.12865L 6.75667 5.25198C 6.75667 4.27398 6.85 3.74999 8.254 3.74999L 10.1313 3.74999L 10.1313 -1.30208e-05L 7.12733 -1.30208e-05C 3.51933 -1.30208e-05 2.24933 1.81935 2.24933 4.87735L 2.24933 7.12865L -3.66211e-07 7.12865L -3.66211e-07 10.8786L 2.24933 10.8786L 2.24933 21.7593L 6.75133 21.7593Z" transform="translate(15.3232 9.12067)" fill="#D3D3D3"/>
</g>
</svg>

