<svg width="16" height="21" viewBox="0 0 16 21" version="1.1" xmlns="http://www.w3.org/2000/svg" xmlns:xlink="http://www.w3.org/1999/xlink">
<g id="Canvas" fill="none">
<g id="ic_password">
<g id="Vector">
<path d="M 8 16C 9.1 16 10 15.1 10 14C 10 12.9 9.1 12 8 12C 6.9 12 6 12.9 6 14C 6 15.1 6.9 16 8 16ZM 14 7L 13 7L 13 5C 13 2.24 10.76 0 8 0C 5.24 0 3 2.24 3 5L 3 7L 2 7C 0.9 7 0 7.9 0 9L 0 19C 0 20.1 0.9 21 2 21L 14 21C 15.1 21 16 20.1 16 19L 16 9C 16 7.9 15.1 7 14 7ZM 4.9 5C 4.9 3.29 6.29 1.9 8 1.9C 9.71 1.9 11.1 3.29 11.1 5L 11.1 7L 4.9 7L 4.9 5ZM 14 19L 2 19L 2 9L 14 9L 14 19Z" fill="#92A1B0"/>
</g>
</g>
</g>
</svg>

