<svg width="41" height="40" viewBox="0 0 41 40" version="1.1" xmlns="http://www.w3.org/2000/svg" xmlns:xlink="http://www.w3.org/1999/xlink">
<g fill="none">
<path fill-rule="evenodd" clip-rule="evenodd" d="M 20 1.00001C 9.50695 1.00001 0.999998 9.50696 0.999998 20C 0.999998 30.4931 9.50695 39 20 39C 30.493 39 39 30.4931 39 20C 39 9.50696 30.493 1.00001 20 1.00001Z" stroke-width="2" stroke-miterlimit="8" transform="translate(0.800049 0)" stroke="#C4C4C4"/>
<path d="M 19.264 0.589767L 16.2171 15.9514C 16.2171 15.9514 15.7912 17.0158 14.6195 16.5045L 7.58842 11.1141L 5.03167 9.87951L 0.72826 8.43025C 0.72826 8.43025 0.067882 8.19575 0.00363219 7.6844C -0.0606176 7.17305 0.748797 6.89618 0.748797 6.89618L 17.8578 0.185044C 17.8578 0.185044 19.264 -0.432931 19.264 0.589767Z" transform="translate(10.3679 11.6783)" fill="#D3D3D3"/>
<path d="M 2.01625 12.6222C 2.01625 12.6222 1.81091 12.603 1.55524 11.7935C 1.30023 10.9835 -1.7384e-06 6.72313 -1.7384e-06 6.72313L 10.3336 0.161012C 10.3336 0.161012 10.9298 -0.201303 10.9086 0.161012C 10.9086 0.161012 11.0152 0.224613 10.6959 0.52268C 10.3767 0.821408 2.57927 7.83061 2.57927 7.83061" transform="translate(15.4001 14.8347)" fill="#B7B7B7"/>
</g>
</svg>

