<svg width="40" height="40" viewBox="0 0 40 40" version="1.1" xmlns="http://www.w3.org/2000/svg" xmlns:xlink="http://www.w3.org/1999/xlink">
<g fill="none">
<path fill-rule="evenodd" clip-rule="evenodd" d="M 20 1.00001C 9.50695 1.00001 0.999998 9.50696 0.999998 20C 0.999998 30.4937 9.50693 39 20 39C 30.493 39 39 30.4931 39 20C 39 9.50696 30.493 1.00001 20 1.00001Z" stroke-width="2" stroke-miterlimit="8" stroke="#C4C4C4"/>
<path d="M 11.7125 11.8981C 11.7125 11.8981 12.0971 11.8561 12.2945 11.6481C 12.4751 11.4575 12.4691 11.0981 12.4691 11.0981C 12.4691 11.0981 12.4451 9.41878 13.2391 9.17144C 14.0218 8.92744 15.0265 10.7948 16.0925 11.5128C 16.8978 12.0555 17.5098 11.9368 17.5098 11.9368L 20.3585 11.8981C 20.3585 11.8981 21.8485 11.8074 21.1425 10.6574C 21.0838 10.5634 20.7305 9.8068 19.0245 8.25213C 17.2365 6.6248 17.4771 6.88747 19.6278 4.07147C 20.9391 2.35747 21.4625 1.31014 21.2985 0.862809C 21.1438 0.434142 20.1791 0.548112 20.1791 0.548112L 16.9711 0.56748C 16.9711 0.56748 16.7338 0.535477 16.5571 0.63881C 16.3845 0.739477 16.2731 0.976782 16.2731 0.976782C 16.2731 0.976782 15.7658 2.30281 15.0891 3.43214C 13.6605 5.81214 13.0898 5.93812 12.8558 5.79079C 12.3125 5.44545 12.4478 4.40612 12.4478 3.66746C 12.4478 1.35946 12.8051 0.398138 11.7545 0.149471C 11.4058 0.0668042 11.1491 0.0121164 10.2571 0.00278304C 9.11181 -0.00921696 8.14448 0.00679932 7.59514 0.269466C 7.23048 0.445466 6.94848 0.836114 7.12048 0.858781C 7.33181 0.886781 7.81248 0.985456 8.06714 1.32546C 8.39581 1.76546 8.38448 2.75079 8.38448 2.75079C 8.38448 2.75079 8.57314 5.46677 7.94314 5.80344C 7.51114 6.03544 6.91848 5.56347 5.64514 3.40281C 4.99248 2.29681 4.49981 1.07411 4.49981 1.07411C 4.49981 1.07411 4.40514 0.845461 4.23515 0.722794C 4.02914 0.574128 3.74315 0.528133 3.74315 0.528133L 0.695148 0.547461C 0.695148 0.547461 0.236479 0.560135 0.069146 0.755469C -0.0795206 0.928802 0.0578139 1.28814 0.0578139 1.28814C 0.0578139 1.28814 2.44381 6.76878 5.14714 9.53078C 7.62514 12.0628 10.4378 11.8975 10.4378 11.8975L 11.7125 11.8975L 11.7125 11.8981Z" transform="translate(9.33423 14.6926)" fill="#C4C4C4"/>
</g>
</svg>

