<svg width="315" height="266" viewBox="0 0 315 266" fill="none" xmlns="http://www.w3.org/2000/svg">
<g opacity="0.25" filter="url(#filter0_f)">
<path d="M141.458 12.19C219.583 12.19 282.916 9.46118 282.916 6.095C282.916 2.72883 219.583 0 141.458 0C63.3329 0 0 2.72883 0 6.095C0 9.46118 63.3329 12.19 141.458 12.19Z" transform="translate(4.99707 249.658)" fill="black"/>
</g>
<path fill-rule="evenodd" clip-rule="evenodd" d="M236.744 -7.08008e-06H48.1651C44.4221 -7.08008e-06 39.1021 0.186012 36.5951 2.31301L0.0141092 29.173C-0.00989085 34.316 -0.578889 39.897 8.77511 39.928H276.133C285.468 39.928 284.918 34.295 284.894 29.173L248.314 2.31301C245.793 0.174012 240.426 -7.08008e-06 236.744 -7.08008e-06Z" transform="translate(4 215.825)" fill="#CACACA"/>
<path fill-rule="evenodd" clip-rule="evenodd" d="M236.737 -1.09863e-05C173.81 -1.09863e-05 110.883 -1.09863e-05 47.9562 -1.09863e-05C43.1922 -1.09863e-05 38.4952 0.76499 37.3892 1.71999C25.1172 12.316 12.8502 22.915 0.576167 33.51C-1.48483 35.288 2.15416 36.747 8.76716 36.747C97.7962 36.747 186.826 36.747 275.855 36.747C282.584 36.747 286.414 35.225 284.308 33.407C272.102 22.865 259.896 12.322 247.685 1.782C246.555 0.804002 241.584 -1.09863e-05 236.737 -1.09863e-05Z" transform="translate(4.01001 210.721)" fill="white"/>
<path fill-rule="evenodd" clip-rule="evenodd" d="M2.48101 -4.15039e-06C18.248 -4.15039e-06 34.015 -4.15039e-06 49.782 -4.15039e-06C50.609 4.141 51.436 6.354 52.263 10.492C34.842 10.492 17.421 10.492 2.44141e-06 10.492C0.828002 6.354 1.65401 4.142 2.48101 -4.15039e-06Z" transform="translate(120.323 233.028)" fill="#CACACA"/>
<path fill-rule="evenodd" clip-rule="evenodd" d="M12.066 1.14746e-05C74.928 1.14746e-05 137.791 1.14746e-05 200.653 1.14746e-05L212.657 13.274H-2.01416e-06L12.066 1.14746e-05Z" transform="translate(40.0952 215.819)" fill="#CACACA"/>
<path fill-rule="evenodd" clip-rule="evenodd" d="M197.106 3.90625e-06H9.145C4.115 3.90625e-06 -1.64795e-06 4.115 -1.64795e-06 9.144V130.521C-1.64795e-06 135.55 4.115 139.666 9.145 139.666H197.106C202.135 139.666 206.251 135.551 206.251 130.521V9.144C206.251 4.115 202.136 3.90625e-06 197.106 3.90625e-06Z" transform="translate(43.3862 71.0549)" fill="#202020"/>
<path fill-rule="evenodd" clip-rule="evenodd" d="M185.448 8.54492e-07H2.889C1.3 8.54492e-07 -9.15527e-07 1.29999 -9.15527e-07 2.88899V116.877C-9.15527e-07 118.466 1.3 119.766 2.889 119.766H185.448C187.038 119.766 188.338 118.466 188.338 116.877V2.88899C188.338 1.29999 187.038 8.54492e-07 185.448 8.54492e-07Z" transform="translate(52.343 81.0049)" fill="#3D66B5"/>
<path opacity="0.15" fill-rule="evenodd" clip-rule="evenodd" d="M67.079 127.769L39.772 150.66V127.769H13.197C5.939 127.769 -3.2959e-06 121.831 -3.2959e-06 114.572V13.197C-3.2959e-06 5.93799 5.938 1.95313e-06 13.197 1.95313e-06H156.937C164.196 1.95313e-06 170.134 5.93899 170.134 13.197V114.572C170.134 121.831 164.195 127.769 156.937 127.769H67.079Z" transform="translate(93.3892 49.8779)" fill="#202020"/>
<g filter="url(#filter1_d)">
<path fill-rule="evenodd" clip-rule="evenodd" d="M67.079 127.77L39.771 150.66V127.77H13.197C5.939 127.77 6.46973e-06 121.832 6.46973e-06 114.573V13.197C6.46973e-06 5.93799 5.938 3.54004e-06 13.197 3.54004e-06H156.937C164.195 3.54004e-06 170.134 5.93899 170.134 13.197V114.573C170.134 121.831 164.195 127.77 156.937 127.77H67.079Z" transform="translate(100.649 43.7639)" fill="#F8F8F8"/>
</g>
<path fill-rule="evenodd" clip-rule="evenodd" d="M5.62399 -8.54492e-07H116.325C119.418 -8.54492e-07 121.948 2.53101 121.948 5.62401V73.598C121.948 76.691 119.417 79.222 116.325 79.222H5.62399C2.53099 79.222 1.70898e-06 76.691 1.70898e-06 73.598V5.62401C0.00100171 2.53001 2.53199 -8.54492e-07 5.62399 -8.54492e-07Z" transform="translate(124.741 70.772)" fill="#D2AA00"/>
<path fill-rule="evenodd" clip-rule="evenodd" d="M5.62399 -6.83594e-06H116.325C119.418 -6.83594e-06 121.948 2.531 121.948 5.624V73.598C121.948 76.691 119.417 79.222 116.325 79.222H5.62399C2.53099 79.222 1.70898e-06 76.692 1.70898e-06 73.598V5.624C0.00100171 2.53 2.53199 -6.83594e-06 5.62399 -6.83594e-06Z" transform="translate(124.741 69.019)" fill="#FFCD00"/>
<path fill-rule="evenodd" clip-rule="evenodd" d="M114.388 43.624H3.687C2.28 43.624 0.989005 43.1 5.24902e-06 42.238L59.037 -6.71387e-06L118.074 42.238C117.085 43.1 115.795 43.624 114.388 43.624Z" transform="translate(126.679 104.616)" fill="#F0C300"/>
<path fill-rule="evenodd" clip-rule="evenodd" d="M3.68599 -6.83594e-06H114.387C115.793 -6.83594e-06 117.084 0.523995 118.073 1.38599L59.037 43.624L5.24902e-06 1.38599C0.989005 0.523995 2.27899 -6.83594e-06 3.68599 -6.83594e-06Z" transform="translate(126.679 69.019)" fill="#FFE164"/>
<path fill-rule="evenodd" clip-rule="evenodd" d="M19.323 38.646C29.966 38.646 38.645 29.966 38.645 19.323C38.645 8.67999 29.965 -4.88281e-06 19.323 -4.88281e-06C8.68101 -4.88281e-06 9.60787e-06 8.67999 9.60787e-06 19.323C-0.000990392 29.966 8.68001 38.646 19.323 38.646Z" transform="translate(226.699 49.696)" fill="url(#paint0_linear)"/>
<path fill-rule="evenodd" clip-rule="evenodd" d="M13.774 20.705H7.08008e-06V17.098H4.34501V6.191H7.08008e-06V2.81099C0.662007 2.81099 1.30199 2.773 1.91199 2.693C2.51699 2.617 3.02401 2.48 3.43201 2.286C3.91401 2.054 4.27499 1.756 4.51099 1.387C4.75199 1.018 4.88999 0.554003 4.92799 3.41797e-06H9.51499V17.098H13.775V20.705H13.774Z" transform="translate(239.134 58.667)" fill="white"/>
<path d="M56.838 58.751H30.314C29.257 58.751 28.401 57.895 28.401 56.838C28.401 55.781 29.257 54.926 30.314 54.926H56.838C57.894 54.926 58.75 55.782 58.75 56.838C58.75 57.894 57.894 58.751 56.838 58.751ZM26.51 44.551C25.849 44.551 25.206 44.208 24.852 43.594C24.325 42.679 24.637 41.51 25.552 40.982L48.523 27.719C49.44 27.191 50.608 27.505 51.135 28.419C51.663 29.334 51.35 30.503 50.435 31.032L27.464 44.294C27.163 44.469 26.834 44.551 26.51 44.551ZM16.111 34.156C15.787 34.156 15.458 34.073 15.157 33.9C14.242 33.372 13.928 32.202 14.457 31.287L27.719 8.316C28.247 7.401 29.416 7.088 30.331 7.616C31.246 8.144 31.559 9.314 31.031 10.229L17.768 33.2C17.414 33.813 16.771 34.156 16.111 34.156ZM1.912 30.35C0.856002 30.35 1.44043e-05 29.494 1.44043e-05 28.438V1.913C1.44043e-05 0.856998 0.856002 3.60107e-06 1.912 3.60107e-06C2.969 3.60107e-06 3.825 0.855998 3.825 1.913V28.438C3.825 29.494 2.969 30.35 1.912 30.35Z" transform="translate(255.704)" fill="#3D66B5"/>
<defs>
<filter id="filter0_f" x="0.99707" y="245.658" width="290.916" height="20.19" filterUnits="userSpaceOnUse" color-interpolation-filters="sRGB">
<feFlood flood-opacity="0" result="BackgroundImageFix"/>
<feBlend mode="normal" in="SourceGraphic" in2="BackgroundImageFix" result="shape"/>
<feGaussianBlur stdDeviation="2" result="effect1_foregroundBlur"/>
</filter>
<filter id="filter1_d" x="90.6492" y="37.7639" width="190.134" height="170.66" filterUnits="userSpaceOnUse" color-interpolation-filters="sRGB">
<feFlood flood-opacity="0" result="BackgroundImageFix"/>
<feColorMatrix in="SourceAlpha" type="matrix" values="0 0 0 0 0 0 0 0 0 0 0 0 0 0 0 0 0 0 255 0"/>
<feOffset dy="4"/>
<feGaussianBlur stdDeviation="5"/>
<feColorMatrix type="matrix" values="0 0 0 0 0 0 0 0 0 0 0 0 0 0 0 0 0 0 0.1 0"/>
<feBlend mode="normal" in2="BackgroundImageFix" result="effect1_dropShadow"/>
<feBlend mode="normal" in="SourceGraphic" in2="effect1_dropShadow" result="shape"/>
</filter>
<linearGradient id="paint0_linear" x2="1" gradientUnits="userSpaceOnUse" gradientTransform="matrix(-38.645 28.9849 -28.9841 -890.404 53.1371 445.202)">
<stop stop-color="#FBB601"/>
<stop offset="1" stop-color="#F2994A"/>
</linearGradient>
</defs>
</svg>
